<svg width="25" height="24" viewBox="0 0 25 24" fill="none" xmlns="http://www.w3.org/2000/svg">
<path d="M17.5 10H19.5C21.5 10 22.5 9 22.5 7V5C22.5 3 21.5 2 19.5 2H17.5C15.5 2 14.5 3 14.5 5V7C14.5 9 15.5 10 17.5 10ZM5.5 22H7.5C9.5 22 10.5 21 10.5 19V17C10.5 15 9.5 14 7.5 14H5.5C3.5 14 2.5 15 2.5 17V19C2.5 21 3.5 22 5.5 22ZM6.5 10C7.56087 10 8.57828 9.57857 9.32843 8.82843C10.0786 8.07828 10.5 7.06087 10.5 6C10.5 4.93913 10.0786 3.92172 9.32843 3.17157C8.57828 2.42143 7.56087 2 6.5 2C5.43913 2 4.42172 2.42143 3.67157 3.17157C2.92143 3.92172 2.5 4.93913 2.5 6C2.5 7.06087 2.92143 8.07828 3.67157 8.82843C4.42172 9.57857 5.43913 10 6.5 10V10ZM18.5 22C19.5609 22 20.5783 21.5786 21.3284 20.8284C22.0786 20.0783 22.5 19.0609 22.5 18C22.5 16.9391 22.0786 15.9217 21.3284 15.1716C20.5783 14.4214 19.5609 14 18.5 14C17.4391 14 16.4217 14.4214 15.6716 15.1716C14.9214 15.9217 14.5 16.9391 14.5 18C14.5 19.0609 14.9214 20.0783 15.6716 20.8284C16.4217 21.5786 17.4391 22 18.5 22Z" stroke="#544F52" stroke-width="1.5" stroke-miterlimit="10" stroke-linecap="round" stroke-linejoin="round"/>
</svg>
