<svg width="126" height="130" viewBox="0 0 126 130" fill="none" xmlns="http://www.w3.org/2000/svg">
<path d="M4.30624 50.1541C7.25023 49.5202 10.1506 51.3926 10.785 54.3361C11.4189 57.2801 9.54653 60.1814 6.60254 60.8153C3.65856 61.4497 0.757717 59.5768 0.123307 56.6329C-0.510629 53.6889 1.36226 50.788 4.30624 50.1541Z" fill="#FF6D83"/>
<path d="M119.495 33.1103C122.396 32.4857 125.254 34.3301 125.878 37.2308C126.503 40.1315 124.659 42.9892 121.758 43.6143C118.857 44.2389 115.999 42.3945 115.374 39.4938C114.75 36.5931 116.595 33.7349 119.495 33.1103Z" fill="#6DB8FF"/>
<path d="M67.3495 0.126958C70.3801 -0.525623 73.3657 1.40186 74.0183 4.43194C74.6714 7.46252 72.7434 10.4492 69.7128 11.1017C66.6823 11.7548 63.6966 9.82684 63.0435 6.79627C62.3909 3.7657 64.3189 0.779539 67.3495 0.126958Z" fill="#FFB636"/>
<path d="M39.9507 118.791C42.9813 118.138 45.9664 120.065 46.6195 123.096C47.2721 126.126 45.3451 129.112 42.3145 129.765C39.284 130.418 36.2978 128.491 35.6447 125.46C34.9921 122.43 36.9201 119.443 39.9507 118.791Z" fill="#6DB8FF"/>
<path d="M116.635 92.5023C119.708 91.8404 122.737 93.7954 123.399 96.8693C124.061 99.9432 122.106 102.971 119.032 103.633C115.958 104.296 112.93 102.341 112.267 99.2669C111.605 96.193 113.561 93.1647 116.635 92.5023Z" fill="#BDA3FF"/>
<path d="M78.2447 15.4121C106.969 23.1089 124.015 52.6338 116.319 81.3578C108.621 110.082 79.0959 127.128 50.372 119.431C21.648 111.734 4.60166 82.2096 12.299 53.4857C19.9952 24.7611 49.5201 7.71537 78.2447 15.4121Z" fill="#3EB489" fill-opacity="0.8"/>
<path d="M55.3849 87.8812C54.7706 88.4359 53.8253 88.3958 53.2595 87.7917L33.7143 66.9188C33.0455 66.0838 32.7217 65.0317 32.8076 63.9735C32.8933 62.9143 33.3832 61.9281 34.1786 61.2096C34.9741 60.4916 36.0168 60.0952 37.0976 60.0993C38.179 60.1034 39.2192 60.508 40.0112 61.2331L54.0973 76.2758C54.474 76.6785 55.1045 76.7044 55.5138 76.3345L85.0557 49.6594C85.905 49.0035 86.9763 48.6867 88.0539 48.7735C89.1318 48.8597 90.137 49.3417 90.8694 50.1247C91.6019 50.9061 92.0073 51.9312 92.0046 52.993C92.0019 54.0549 91.5914 55.0757 90.8546 55.8527L55.3849 87.8812Z" fill="#FCFCFC"/>
<path d="M23.1506 18.1684C23.1506 18.1684 23.1665 17.5608 23.0643 16.5601" stroke="#FF6E83" stroke-width="3.19838" stroke-linecap="round"/>
<path d="M15.7577 112.645C15.7577 112.645 16.6712 113.765 17.4045 115.145" stroke="#BEA4FF" stroke-width="3.02498" stroke-linecap="round"/>
<path d="M106.497 16.8089C106.497 16.8089 107.323 15.1745 108.726 13.2416" stroke="#FFB636" stroke-width="2.73496" stroke-linecap="round"/>
<path d="M101.818 115.519C101.818 115.519 101.572 116.168 101.487 117.204" stroke="#6EB9FF" stroke-width="3.02498" stroke-linecap="round"/>
</svg>
