<svg width="24" height="26" viewBox="0 0 24 26" fill="none" xmlns="http://www.w3.org/2000/svg">
<path d="M15.58 12.9999C15.58 15.1449 13.98 16.8782 12 16.8782C10.02 16.8782 8.41998 15.1449 8.41998 12.9999C8.41998 10.8549 10.02 9.12158 12 9.12158C13.98 9.12158 15.58 10.8549 15.58 12.9999Z" stroke="#3E5641" stroke-width="1.5" stroke-linecap="round" stroke-linejoin="round"/>
<path d="M12 21.959C15.53 21.959 18.82 19.7056 21.11 15.8056C22.01 14.2781 22.01 11.7106 21.11 10.1831C18.82 6.28312 15.53 4.02979 12 4.02979C8.47003 4.02979 5.18003 6.28312 2.89003 10.1831C1.99003 11.7106 1.99003 14.2781 2.89003 15.8056C5.18003 19.7056 8.47003 21.959 12 21.959Z" stroke="#3E5641" stroke-width="1.5" stroke-linecap="round" stroke-linejoin="round"/>
</svg>
