<svg width="40" height="40" viewBox="0 0 40 40" fill="none" xmlns="http://www.w3.org/2000/svg">
<circle cx="20" cy="20" r="20" fill="#3E5641"/>
<path d="M16.5 29H16C12 29 10 28 10 23V18C10 14 12 12 16 12H24C28 12 30 14 30 18V23C30 27 28 29 24 29H23.5C23.19 29 22.89 29.15 22.7 29.4L21.2 31.4C20.54 32.28 19.46 32.28 18.8 31.4L17.3 29.4C17.14 29.18 16.77 29 16.5 29V29Z" stroke="#FAFAFA" stroke-width="1.5" stroke-miterlimit="10" stroke-linecap="round" stroke-linejoin="round"/>
<path d="M23.9961 21H24.0061M19.9951 21H20.0051M15.9951 21H16.0031" stroke="#FAFAFA" stroke-width="2" stroke-linecap="round" stroke-linejoin="round"/>
</svg>
