<svg width="24" height="24" viewBox="0 0 24 24" fill="none" xmlns="http://www.w3.org/2000/svg">
<path d="M8 2V5M16 2V5M7 11H13M7 16H9.62M21 8.5V13.63C20.0767 12.8947 18.9303 12.4961 17.75 12.5C16.52 12.5 15.37 12.93 14.47 13.66C13.8531 14.1478 13.3552 14.7695 13.0139 15.4781C12.6726 16.1866 12.4969 16.9635 12.5 17.75C12.5 18.73 12.78 19.67 13.26 20.45C13.63 21.06 14.11 21.59 14.68 22H8C4.5 22 3 20 3 17V8.5C3 5.5 4.5 3.5 8 3.5H16C19.5 3.5 21 5.5 21 8.5Z" stroke="black" stroke-width="1.5" stroke-miterlimit="10" stroke-linecap="round" stroke-linejoin="round"/>
<path d="M23 17.75C23 18.73 22.72 19.67 22.24 20.45C21.96 20.93 21.61 21.35 21.2 21.69C20.28 22.51 19.08 23 17.75 23C16.6 23 15.54 22.63 14.68 22C14.11 21.59 13.63 21.06 13.26 20.45C12.78 19.67 12.5 18.73 12.5 17.75C12.5 16.1 13.26 14.61 14.47 13.66C15.37 12.93 16.52 12.5 17.75 12.5C18.98 12.5 20.11 12.92 21 13.63C22.22 14.59 23 16.08 23 17.75V17.75Z" stroke="black" stroke-width="1.5" stroke-miterlimit="10" stroke-linecap="round" stroke-linejoin="round"/>
<path d="M17.75 20.25C17.75 19.587 18.0134 18.9511 18.4822 18.4822C18.9511 18.0134 19.587 17.75 20.25 17.75C19.587 17.75 18.9511 17.4866 18.4822 17.0178C18.0134 16.5489 17.75 15.913 17.75 15.25C17.75 15.913 17.4866 16.5489 17.0178 17.0178C16.5489 17.4866 15.913 17.75 15.25 17.75C15.913 17.75 16.5489 18.0134 17.0178 18.4822C17.4866 18.9511 17.75 19.587 17.75 20.25Z" stroke="black" stroke-width="1.5" stroke-linecap="round" stroke-linejoin="round"/>
</svg>
