<svg width="32" height="32" viewBox="0 0 32 32" fill="none" xmlns="http://www.w3.org/2000/svg">
<path d="M16.0001 8.58699V13.027M16.0268 2.66699C11.1201 2.66699 7.14677 6.64032 7.14677 11.547V14.347C7.14677 15.2537 6.77344 16.6137 6.30677 17.387L4.61344 20.2137C3.57344 21.9603 4.29344 23.907 6.21344 24.547C12.5885 26.667 19.4784 26.667 25.8534 24.547C26.2741 24.4067 26.6579 24.1736 26.9763 23.8651C27.2948 23.5565 27.54 23.1804 27.6935 22.7644C27.8471 22.3484 27.9053 21.9032 27.8638 21.4617C27.8222 21.0202 27.682 20.5937 27.4534 20.2137L25.7601 17.387C25.2934 16.6137 24.9201 15.2403 24.9201 14.347V11.547C24.9068 6.66699 20.9068 2.66699 16.0268 2.66699Z" stroke="black" stroke-width="1.5" stroke-miterlimit="10" stroke-linecap="round"/>
<path d="M20.4401 25.0938C20.4401 27.5338 18.4401 29.5338 16.0001 29.5338C14.7867 29.5338 13.6667 29.0271 12.8667 28.2271C12.0667 27.4271 11.5601 26.3071 11.5601 25.0938" stroke="black" stroke-width="1.5" stroke-miterlimit="10"/>
</svg>
