<svg width="32" height="32" viewBox="0 0 32 32" fill="none" xmlns="http://www.w3.org/2000/svg">
<path d="M28 7.97366C23.56 7.53366 19.0933 7.30699 14.64 7.30699C12 7.30699 9.36 7.44033 6.72 7.70699L4 7.97366M11.3333 6.62699L11.6267 4.88033C11.84 3.61366 12 2.66699 14.2533 2.66699H17.7467C20 2.66699 20.1733 3.66699 20.3733 4.89366L20.6667 6.62699M25.1333 12.187L24.2667 25.6137C24.12 27.707 24 29.3337 20.28 29.3337H11.72C8 29.3337 7.88 27.707 7.73333 25.6137L6.86667 12.187M13.7733 22.0003H18.2133M12.6667 16.667H19.3333" stroke="#201E1F" stroke-width="1.5" stroke-linecap="round" stroke-linejoin="round"/>
</svg>
