<svg width="40" height="38" viewBox="0 0 40 38" fill="none" xmlns="http://www.w3.org/2000/svg">
<path d="M25.508 14C27.44 14 29.008 15.568 29.008 17.5V24H29V24.5C29 24.8978 28.842 25.2794 28.5607 25.5607C28.2794 25.842 27.8978 26 27.5 26C27.1022 26 26.7206 25.842 26.4393 25.5607C26.158 25.2794 26 24.8978 26 24.5V20H26.008V17.5C26.008 17.3674 25.9553 17.2402 25.8616 17.1464C25.7678 17.0527 25.6406 17 25.508 17H14.504C14.3714 17 14.2442 17.0527 14.1504 17.1464C14.0567 17.2402 14.004 17.3674 14.004 17.5V24H14V24.5C14 24.8978 13.842 25.2794 13.5607 25.5607C13.2794 25.842 12.8978 26 12.5 26C12.1022 26 11.7206 25.842 11.4393 25.5607C11.158 25.2794 11 24.8978 11 24.5V20H11.004V17.5C11.004 15.568 12.57 14 14.504 14H25.508ZM37 17.5V24.5C37 24.8978 37.158 25.2794 37.4393 25.5607C37.7206 25.842 38.1022 26 38.5 26C38.8978 26 39.2794 25.842 39.5607 25.5607C39.842 25.2794 40 24.8978 40 24.5V17.5C40 16.5717 39.6312 15.6815 38.9749 15.0251C38.3185 14.3687 37.4283 14 36.5 14H29.75C30.436 14.83 30.884 15.864 30.986 17H36.5C36.6326 17 36.7598 17.0527 36.8536 17.1464C36.9473 17.2402 37 17.3674 37 17.5ZM0 24.5C8.38353e-09 24.8978 0.158035 25.2794 0.43934 25.5607C0.720644 25.842 1.10218 26 1.5 26C1.89782 26 2.27936 25.842 2.56066 25.5607C2.84196 25.2794 3 24.8978 3 24.5V17.5C3 17.3674 3.05268 17.2402 3.14645 17.1464C3.24021 17.0527 3.36739 17 3.5 17H9.026C9.12548 15.8981 9.5564 14.8522 10.262 14H3.5C2.57174 14 1.6815 14.3687 1.02513 15.0251C0.368749 15.6815 0 16.5717 0 17.5V24.5ZM20 0C21.5913 0 23.1174 0.632141 24.2426 1.75736C25.3679 2.88258 26 4.4087 26 6C26 7.5913 25.3679 9.11742 24.2426 10.2426C23.1174 11.3679 21.5913 12 20 12C18.4087 12 16.8826 11.3679 15.7574 10.2426C14.6321 9.11742 14 7.5913 14 6C14 4.4087 14.6321 2.88258 15.7574 1.75736C16.8826 0.632141 18.4087 0 20 0ZM20 3C19.2044 3 18.4413 3.31607 17.8787 3.87868C17.3161 4.44129 17 5.20435 17 6C17 6.79565 17.3161 7.55871 17.8787 8.12132C18.4413 8.68393 19.2044 9 20 9C20.7956 9 21.5587 8.68393 22.1213 8.12132C22.6839 7.55871 23 6.79565 23 6C23 5.20435 22.6839 4.44129 22.1213 3.87868C21.5587 3.31607 20.7956 3 20 3ZM33 2C34.3261 2 35.5979 2.52678 36.5355 3.46447C37.4732 4.40215 38 5.67392 38 7C38 8.32608 37.4732 9.59785 36.5355 10.5355C35.5979 11.4732 34.3261 12 33 12C31.6739 12 30.4021 11.4732 29.4645 10.5355C28.5268 9.59785 28 8.32608 28 7C28 5.67392 28.5268 4.40215 29.4645 3.46447C30.4021 2.52678 31.6739 2 33 2ZM33 5C32.4696 5 31.9609 5.21071 31.5858 5.58579C31.2107 5.96086 31 6.46957 31 7C31 7.53043 31.2107 8.03914 31.5858 8.41421C31.9609 8.78929 32.4696 9 33 9C33.5304 9 34.0391 8.78929 34.4142 8.41421C34.7893 8.03914 35 7.53043 35 7C35 6.46957 34.7893 5.96086 34.4142 5.58579C34.0391 5.21071 33.5304 5 33 5ZM7 2C8.32608 2 9.59785 2.52678 10.5355 3.46447C11.4732 4.40215 12 5.67392 12 7C12 8.32608 11.4732 9.59785 10.5355 10.5355C9.59785 11.4732 8.32608 12 7 12C5.67392 12 4.40215 11.4732 3.46447 10.5355C2.52678 9.59785 2 8.32608 2 7C2 5.67392 2.52678 4.40215 3.46447 3.46447C4.40215 2.52678 5.67392 2 7 2ZM7 5C6.46957 5 5.96086 5.21071 5.58579 5.58579C5.21071 5.96086 5 6.46957 5 7C5 7.53043 5.21071 8.03914 5.58579 8.41421C5.96086 8.78929 6.46957 9 7 9C7.53043 9 8.03914 8.78929 8.41421 8.41421C8.78929 8.03914 9 7.53043 9 7C9 6.46957 8.78929 5.96086 8.41421 5.58579C8.03914 5.21071 7.53043 5 7 5ZM1.5 28C1.10218 28 0.720644 28.158 0.43934 28.4393C0.158035 28.7206 0 29.1022 0 29.5V30.5C0 32.4891 0.790176 34.3968 2.1967 35.8033C3.60322 37.2098 5.51088 38 7.5 38H32.5C34.4891 38 36.3968 37.2098 37.8033 35.8033C39.2098 34.3968 40 32.4891 40 30.5V29.5C40 29.1022 39.842 28.7206 39.5607 28.4393C39.2794 28.158 38.8978 28 38.5 28H1.5ZM7.5 35C6.39313 35 5.32509 34.592 4.50008 33.8541C3.67508 33.1161 3.15099 32.1 3.028 31H36.972C36.849 32.1 36.3249 33.1161 35.4999 33.8541C34.6749 34.592 33.6069 35 32.5 35H7.5Z" fill="white"/>
</svg>
