<svg width="24" height="24" viewBox="0 0 24 24" fill="none" xmlns="http://www.w3.org/2000/svg">
<path d="M15.3048 8.8421C16.464 8.8421 17.4048 9.83242 17.4048 11.0526V15.1579H17.4V15.4737C17.4 15.7249 17.3052 15.9659 17.1364 16.1436C16.9676 16.3212 16.7387 16.4211 16.5 16.4211C16.2613 16.4211 16.0324 16.3212 15.8636 16.1436C15.6948 15.9659 15.6 15.7249 15.6 15.4737V12.6316H15.6048V11.0526C15.6048 10.9689 15.5732 10.8886 15.5169 10.8293C15.4607 10.7701 15.3844 10.7368 15.3048 10.7368H8.7024C8.62284 10.7368 8.54653 10.7701 8.49027 10.8293C8.43401 10.8886 8.4024 10.9689 8.4024 11.0526V15.1579H8.4V15.4737C8.4 15.7249 8.30518 15.9659 8.1364 16.1436C7.96761 16.3212 7.7387 16.4211 7.5 16.4211C7.26131 16.4211 7.03239 16.3212 6.8636 16.1436C6.69482 15.9659 6.6 15.7249 6.6 15.4737V12.6316H6.6024V11.0526C6.6024 9.83242 7.542 8.8421 8.7024 8.8421H15.3048ZM22.2 11.0526V15.4737C22.2 15.7249 22.2948 15.9659 22.4636 16.1436C22.6324 16.3212 22.8613 16.4211 23.1 16.4211C23.3387 16.4211 23.5676 16.3212 23.7364 16.1436C23.9052 15.9659 24 15.7249 24 15.4737V11.0526C24 10.4664 23.7788 9.90411 23.3849 9.48955C22.9911 9.075 22.457 8.8421 21.9 8.8421H17.85C18.2616 9.36632 18.5304 10.0194 18.5916 10.7368H21.9C21.9796 10.7368 22.0559 10.7701 22.1121 10.8293C22.1684 10.8886 22.2 10.9689 22.2 11.0526ZM0 15.4737C5.03012e-09 15.7249 0.094821 15.9659 0.263604 16.1436C0.432387 16.3212 0.661305 16.4211 0.9 16.4211C1.13869 16.4211 1.36761 16.3212 1.5364 16.1436C1.70518 15.9659 1.8 15.7249 1.8 15.4737V11.0526C1.8 10.9689 1.83161 10.8886 1.88787 10.8293C1.94413 10.7701 2.02044 10.7368 2.1 10.7368H5.4156C5.47529 10.0409 5.73384 9.38032 6.1572 8.8421H2.1C1.54305 8.8421 1.0089 9.075 0.615076 9.48955C0.221249 9.90411 0 10.4664 0 11.0526V15.4737ZM12 0C12.9548 0 13.8705 0.399247 14.5456 1.10991C15.2207 1.82058 15.6 2.78444 15.6 3.78947C15.6 4.7945 15.2207 5.75837 14.5456 6.46904C13.8705 7.1797 12.9548 7.57895 12 7.57895C11.0452 7.57895 10.1295 7.1797 9.45442 6.46904C8.77928 5.75837 8.4 4.7945 8.4 3.78947C8.4 2.78444 8.77928 1.82058 9.45442 1.10991C10.1295 0.399247 11.0452 0 12 0ZM12 1.89474C11.5226 1.89474 11.0648 2.09436 10.7272 2.44969C10.3896 2.80502 10.2 3.28696 10.2 3.78947C10.2 4.29199 10.3896 4.77392 10.7272 5.12925C11.0648 5.48459 11.5226 5.68421 12 5.68421C12.4774 5.68421 12.9352 5.48459 13.2728 5.12925C13.6104 4.77392 13.8 4.29199 13.8 3.78947C13.8 3.28696 13.6104 2.80502 13.2728 2.44969C12.9352 2.09436 12.4774 1.89474 12 1.89474ZM19.8 1.26316C20.5956 1.26316 21.3587 1.59586 21.9213 2.18808C22.4839 2.7803 22.8 3.58353 22.8 4.42105C22.8 5.25858 22.4839 6.0618 21.9213 6.65402C21.3587 7.24624 20.5956 7.57895 19.8 7.57895C19.0044 7.57895 18.2413 7.24624 17.6787 6.65402C17.1161 6.0618 16.8 5.25858 16.8 4.42105C16.8 3.58353 17.1161 2.7803 17.6787 2.18808C18.2413 1.59586 19.0044 1.26316 19.8 1.26316ZM19.8 3.15789C19.4817 3.15789 19.1765 3.29098 18.9515 3.52787C18.7264 3.76475 18.6 4.08604 18.6 4.42105C18.6 4.75606 18.7264 5.07735 18.9515 5.31424C19.1765 5.55113 19.4817 5.68421 19.8 5.68421C20.1183 5.68421 20.4235 5.55113 20.6485 5.31424C20.8736 5.07735 21 4.75606 21 4.42105C21 4.08604 20.8736 3.76475 20.6485 3.52787C20.4235 3.29098 20.1183 3.15789 19.8 3.15789ZM4.2 1.26316C4.99565 1.26316 5.75871 1.59586 6.32132 2.18808C6.88393 2.7803 7.2 3.58353 7.2 4.42105C7.2 5.25858 6.88393 6.0618 6.32132 6.65402C5.75871 7.24624 4.99565 7.57895 4.2 7.57895C3.40435 7.57895 2.64129 7.24624 2.07868 6.65402C1.51607 6.0618 1.2 5.25858 1.2 4.42105C1.2 3.58353 1.51607 2.7803 2.07868 2.18808C2.64129 1.59586 3.40435 1.26316 4.2 1.26316ZM4.2 3.15789C3.88174 3.15789 3.57652 3.29098 3.35147 3.52787C3.12643 3.76475 3 4.08604 3 4.42105C3 4.75606 3.12643 5.07735 3.35147 5.31424C3.57652 5.55113 3.88174 5.68421 4.2 5.68421C4.51826 5.68421 4.82348 5.55113 5.04853 5.31424C5.27357 5.07735 5.4 4.75606 5.4 4.42105C5.4 4.08604 5.27357 3.76475 5.04853 3.52787C4.82348 3.29098 4.51826 3.15789 4.2 3.15789ZM0.9 17.6842C0.661305 17.6842 0.432387 17.784 0.263604 17.9617C0.094821 18.1394 0 18.3803 0 18.6316V19.2632C0 20.5194 0.474106 21.7243 1.31802 22.6126C2.16193 23.5009 3.30653 24 4.5 24H19.5C20.6935 24 21.8381 23.5009 22.682 22.6126C23.5259 21.7243 24 20.5194 24 19.2632V18.6316C24 18.3803 23.9052 18.1394 23.7364 17.9617C23.5676 17.784 23.3387 17.6842 23.1 17.6842H0.9ZM4.5 22.1053C3.83588 22.1052 3.19505 21.8476 2.70005 21.3815C2.20505 20.9154 1.89059 20.2737 1.8168 19.5789H22.1832C22.1094 20.2737 21.795 20.9154 21.2999 21.3815C20.8049 21.8476 20.1641 22.1052 19.5 22.1053H4.5Z" fill="#544F52"/>
</svg>
